<?xml version="1.0" encoding="UTF-8"?>
<svg width="101.86mm" height="70.679mm" version="1.1" viewBox="0 0 101.86 70.679" xmlns="http://www.w3.org/2000/svg" xmlns:cc="http://creativecommons.org/ns#" xmlns:dc="http://purl.org/dc/elements/1.1/" xmlns:rdf="http://www.w3.org/1999/02/22-rdf-syntax-ns#">
<metadata>
<rdf:RDF>
<cc:Work rdf:about="">
<dc:format>image/svg+xml</dc:format>
<dc:type rdf:resource="http://purl.org/dc/dcmitype/StillImage"/>
<dc:title/>
</cc:Work>
</rdf:RDF>
</metadata>
<rect transform="rotate(-39.2)" x="12.549" y="16.529" width="7.7194" height="84.913" fill="#aaaaaa" stroke-linejoin="round" stroke-width="1.942"/>
<g transform="translate(-101.2 -92.488)" fill="#aaaaaa" stroke-width=".99991">
<path d="m152 105.3c-27.517 0.26458-50.8 23.812-50.8 23.812s22.886 24.606 50.8 24.474c27.914-0.13229 51.065-24.474 51.065-24.474s-23.548-24.077-51.065-23.812zm0 6.35a17.462 17.462 0 0 1 17.462 17.462 17.462 17.462 0 0 1-17.462 17.462 17.462 17.462 0 0 1-17.462-17.462 17.462 17.462 0 0 1 17.462-17.462zm-0.0444 7.0264a10.436 10.436 0 0 0-10.392 10.436 10.436 10.436 0 0 0 10.437 10.437 10.436 10.436 0 0 0 10.436-10.437 10.436 10.436 0 0 0-10.436-10.436 10.436 10.436 0 0 0-0.045 0z" fill="#aaaaaa" stroke-width=".99991"/>
</g>
</svg>
